<svg xmlns="http://www.w3.org/2000/svg" viewBox="0 0 512 512">
  <defs><linearGradient id="g" x1="0" y1="0" x2="1" y2="1"><stop offset="0" stop-color="#7168ff"/><stop offset="1" stop-color="#3f8cff"/></linearGradient></defs>
  <rect width="512" height="512" fill="url(#g)"/>
  <path d="M136 350V220c0-18 15-33 33-33s33 15 33 33v130c0 18-15 33-33 33s-33-15-33-33Zm89 0V165c0-18 15-33 33-33s33 15 33 33v185c0 18-15 33-33 33s-33-15-33-33Zm89 0v-86c0-18 15-33 33-33s33 15 33 33v86c0 18-15 33-33 33s-33-15-33-33Z" fill="#fff"/>
  <path d="m116 196 47-52 57 27 67-76 62 47 70-42" fill="none" stroke="#fff" stroke-width="15" stroke-linecap="round" stroke-linejoin="round" opacity=".9"/>
</svg>